<?xml version="1.0" encoding="utf-8"?>
<!-- Generator: Adobe Illustrator 22.1.0, SVG Export Plug-In . SVG Version: 6.00 Build 0)  -->
<svg version="1.1" id="Layer_1" xmlns="http://www.w3.org/2000/svg" xmlns:xlink="http://www.w3.org/1999/xlink" x="0px" y="0px"
	 viewBox="0 0 566.9 566.9" style="enable-background:new 0 0 566.9 566.9;" xml:space="preserve">
<style type="text/css">
	.st0{fill:#4D4D4D;}
	.st1{font-family:'Arial-Black';}
	.st2{font-size:90px;}
	.st3{letter-spacing:6;}
	.st4{letter-spacing:4;}
	.st5{fill:#FFFFFF;}
</style>
<title>Asset 4</title>
<g id="Layer_2_1_">
	<g id="Layer_1-2">
		<text transform="matrix(1 0 0 1 16.7296 308.2745)" class="st0 st1 st2 st3">D</text>
		<text transform="matrix(1 0 0 1 93.4796 308.2745)" class="st0 st1 st2 st4">e</text>
		<text transform="matrix(1 0 0 1 157.9395 308.2745)" class="st0 st1 st2 st3">v   ECS</text>
		<rect x="231.6" y="233.7" class="st0" width="84" height="84"/>
		<rect x="271.9" y="233.7" class="st5" width="3.9" height="84"/>
		<rect x="279.6" y="233.7" class="st5" width="3.9" height="84"/>
		<rect x="245.6" y="247.2" class="st5" width="56.5" height="56.5"/>
		<rect x="264.1" y="233.7" class="st5" width="3.9" height="84"/>
		<rect x="256.4" y="233.7" class="st5" width="3.9" height="84"/>
		<rect x="287.4" y="233.7" class="st5" width="3.9" height="84"/>
		<rect x="231.6" y="273.9" class="st5" width="84" height="3.9"/>
		<rect x="231.6" y="266.2" class="st5" width="84" height="3.9"/>
		<rect x="231.6" y="281.7" class="st5" width="84" height="3.9"/>
		<rect x="231.6" y="289.4" class="st5" width="84" height="3.9"/>
		<rect x="231.6" y="258.5" class="st5" width="84" height="3.9"/>
		<rect x="256.4" y="258.4" class="st0" width="34.8" height="34.8"/>
	</g>
</g>
</svg>
