<svg xmlns="http://www.w3.org/2000/svg" width="1889.76" height="1889.76" viewBox="0 0 1417.32 1417.32"><g data-name="Layer 1"><clipPath id="a"><path transform="matrix(1 0 0 -1 0 1417.32)" d="M0 1417.323h1417.323V0H0z"/></clipPath><g clip-path="url(#a)"><path d="M639.417 926.438c-107.908 0-197.584-79.342-213.89-182.74-.382-2.427-2.44-4.231-4.898-4.231h-65.587c-2.958 0-5.292 2.579-4.937 5.519 17.405 144.182 140.513 256.28 289.312 256.28 73.508 0 147.37-31.001 202.648-85.06a310.713 310.713 0 004.972-4.97c1.665-1.702.433-4.577-1.948-4.586l-117.428-.45c-27.263 12.928-57.24 20.238-88.244 20.238M639.417 493.257c34.485 0 67.108 8.104 96.068 22.505l115.216.263c2.382.005 3.595-2.831 1.972-4.576-53.236-57.195-129.137-93.022-213.256-93.022-149.885 0-273.683 113.748-289.654 259.45-.321 2.923 2.007 5.468 4.947 5.468h65.459c2.485 0 4.557-1.842 4.909-4.302 15.006-104.883 105.374-185.786 214.339-185.786" fill="#d3001a"/><path d="M913.236 905.926c-11.34 15.339-24.072 29.954-38.13 43.7-56.665 55.41-129.428 90.146-203.584 98.025-3.177.337-5.604 2.979-5.604 6.173v72.037c0 3.643 3.11 6.548 6.74 6.233 41.263-3.58 82.185-13.748 121.175-29.811 2.625-1.081 5.642-.274 7.345 1.997l49.652 66.207a6.224 6.224 0 002.15 1.81l25.78 13.168a6.23 6.23 0 005.878-.113l44.766-25.073a6.233 6.233 0 003.166-4.954l2.238-28.862a6.217 6.217 0 00-.42-2.778l-32.674-82.36-.825-2.264a441.867 441.867 0 0033.074-29.244c30.961-30.277 56.746-64.025 76.92-100.235 1.008-1.808-.326-4.04-2.396-4.031zM1011.355 515.902c2.14.012 3.449-2.343 2.308-4.153-10.148-16.082-47.662-74.405-74.678-101.422a429.625 429.625 0 00-33.986-30.541 6.199 6.199 0 01-1.89-7.121l31.277-78.695a6.205 6.205 0 00.423-2.782l-2.238-28.86a6.231 6.231 0 00-3.167-4.953L884.639 232.3a6.23 6.23 0 00-5.878-.112l-25.78 13.168a6.211 6.211 0 00-2.15 1.81l-49.541 66.059c-1.68 2.238-4.637 3.058-7.243 2.038-38.548-15.088-79.376-24.482-121.443-27.723-3.611-.28-6.685 2.615-6.685 6.237v71.969c0 3.222 2.469 5.88 5.678 6.18 78.527 7.337 151.39 41.454 207.862 97.926 14.37 14.37 38.366 45.514 38.366 45.514z"/><path d="M213.956 768.724l-79.326-10.736a8.264 8.264 0 01-3.495-1.325l-22.751-15.22a8.281 8.281 0 01-3.678-6.9l.08-49.108a8.282 8.282 0 013.7-6.887l22.8-15.146a8.28 8.28 0 013.5-1.313l78.76-10.397c3.66-.484 6.523-3.34 7.083-6.988 13.574-88.401 54.67-169.942 119.106-234.377a429.085 429.085 0 0132.734-29.527c2.812-2.286 3.84-6.1 2.507-9.47l-30.472-76.92a8.283 8.283 0 01-.558-3.692l2.118-27.293a8.281 8.281 0 014.21-6.587l42.847-24a8.287 8.287 0 017.816-.15l24.377 12.452a8.292 8.292 0 012.86 2.408l48.318 64.428c2.234 2.978 6.165 4.065 9.636 2.722 37.446-14.496 77.022-23.63 117.783-26.981 4.796-.395 8.889 3.459 8.889 8.272v67.878c0 4.29-3.281 7.817-7.55 8.24-77.812 7.7-149.968 41.723-205.99 97.746-64.12 64.12-99.43 149.373-99.43 240.054 0 89.14 36.857 174.274 103.782 239.719 56.195 54.95 128.22 89.567 201.738 97.823 4.225.474 7.45 3.98 7.45 8.234v67.947c0 4.842-4.14 8.71-8.96 8.265-39.992-3.7-79.635-13.58-117.481-29.008-3.498-1.426-7.508-.355-9.774 2.666l-48.411 64.554a8.289 8.289 0 01-2.86 2.407l-24.377 12.45a8.282 8.282 0 01-7.816-.15l-42.846-23.997a8.286 8.286 0 01-4.211-6.588l-2.118-27.292a8.29 8.29 0 01.559-3.694l31.128-78.51c1.332-3.358.315-7.165-2.477-9.458a441.14 441.14 0 01-28.4-25.458c-66.772-65.294-109.461-146.734-123.757-234.188-.59-3.604-3.423-6.415-7.043-6.905" fill="#5c5456"/><path d="M547.831 870.535V549.81a6.02 6.02 0 016.03-6.019l141.965.278a6.018 6.018 0 016.006 6.02v42.91a6.018 6.018 0 01-6.03 6.018l-75.477-.148a6.02 6.02 0 00-6.03 6.02v69.724a6.02 6.02 0 006.007 6.02l73.904.145a6.019 6.019 0 016.007 6.02v40.27a6.02 6.02 0 01-6.03 6.02l-73.858-.147a6.018 6.018 0 00-6.03 6.02v74.12a6.018 6.018 0 006.007 6.02l74.984.147a6.02 6.02 0 016.007 6.018v45.547a6.019 6.019 0 01-6.03 6.02l-141.425-.277a6.02 6.02 0 01-6.007-6.02M908.518 749.77c2.992.007 5.54 2.233 5.892 5.205.286 2.423.482 4.868.59 7.338.178 4.25.27 10.043.27 17.364 0 17.584-1.173 32.82-3.512 45.708-2.347 12.897-6.754 23.579-13.24 32.064-6.481 8.49-15.584 14.846-27.287 19.068-11.71 4.224-26.933 6.32-45.658 6.283-23.06-.044-40.527-2.057-52.415-6.034-11.888-3.98-20.897-11.1-27.02-21.375-2.886-4.69-5.402-10.265-7.563-16.717-2.162-6.45-3.97-15.097-5.404-25.947-1.444-10.84-2.432-24.621-2.972-41.328-.54-16.703-.811-37.946-.811-63.738 0-27.543.448-49.673 1.35-66.374.897-16.704 2.07-30.034 3.513-39.997 1.437-9.956 3.244-17.424 5.406-22.407 2.159-4.975 4.498-9.511 7.022-13.613 6.122-9.948 14.769-16.896 25.938-20.83 11.162-3.934 28.098-5.878 50.794-5.835 20.532.04 36.204 1.686 47.009 4.927 10.808 3.25 19.09 8.389 24.858 15.436 12.605 14.68 18.913 41.507 18.913 80.478v15.605c0 1.834-.108 3.775-.321 5.824-.318 3.045-2.868 5.38-5.93 5.375l-51.667-.102c-3.405-.006-6.05-2.867-5.913-6.27.045-1.136.068-2.273.068-3.41V642.84c0-9.96-.54-18.61-1.622-25.94-1.08-7.322-2.524-12.6-4.321-15.833-1.807-2.93-4.054-5.13-6.756-6.607-2.701-1.468-7.481-2.211-14.318-2.225-7.21-.014-12.344.785-15.4 2.387-3.066 1.607-5.32 4.46-6.756 8.559-1.08 2.93-1.982 6.225-2.702 9.885-.724 3.666-1.35 9.159-1.89 16.48-.541 7.328-.903 17.142-1.08 29.45-.187 12.308-.271 28.427-.271 48.352 0 20.222.084 36.64.27 49.235.178 12.605.54 22.64 1.08 30.115.54 7.472 1.167 13.188 1.89 17.147.72 3.957 1.623 7.405 2.703 10.334 1.437 4.113 3.784 6.973 7.025 8.585 3.243 1.62 9 2.437 17.293 2.452 11.887.024 18.912-4.062 21.072-12.266 1.799-5.856 2.973-12.591 3.512-20.215.542-7.615.81-17.726.81-30.33v-6.646c-.007-3.342 2.605-6.095 5.947-6.09zM1059.201 648.084c-4.36-.009-7.769-3.7-7.503-8.055l.006-.09c.177-3.08.27-7.255.27-12.53 0-12.893-1.538-22.05-4.593-27.482-3.065-5.425-10.36-8.155-21.885-8.176-5.049-.01-9.185.352-12.428 1.075-3.242.73-5.859 2.405-7.836 5.04-1.984 2.633-3.335 6.298-4.052 10.98-.725 4.69-1.08 10.988-1.08 18.901 0 7.032.083 12.603.27 16.705.177 4.106.625 7.475 1.35 10.112.72 2.638 1.798 4.77 3.244 6.382 1.433 1.616 3.595 3.452 6.484 5.506 4.321 2.941 9.54 5.953 15.67 9.043 6.121 3.088 12.604 6.035 19.451 8.83a769.276 769.276 0 0119.724 8.39c6.3 2.801 11.617 5.374 15.94 7.723 6.485 3.531 11.796 7.06 15.941 10.584 4.137 3.524 7.472 8.146 9.997 13.864 2.515 5.721 4.23 13.196 5.134 22.428.894 9.235 1.35 21.324 1.35 36.27 0 20.516-1.536 37.291-4.594 50.322-3.064 13.037-8.104 23.214-15.13 30.522-7.024 7.313-16.302 12.276-27.827 14.891-11.533 2.615-25.937 3.904-43.228 3.87-15.13-.028-27.922-1.152-38.365-3.37-10.454-2.22-19.1-6.337-25.938-12.359-6.847-6.019-11.804-14.378-14.859-25.085-3.065-10.7-4.593-24.696-4.593-41.99 0-7.033.354-13.477 1.08-19.34.393-3.207.842-6.15 1.345-8.832.667-3.557 3.801-6.103 7.418-6.096l41.01.081c4.223.008 7.576 3.473 7.51 7.696a49 49 0 00-.006.67v10.988c0 9.087.45 16.418 1.351 21.984.894 5.572 2.34 9.894 4.323 12.976 1.977 3.08 4.678 5.14 8.105 6.17 3.421 1.036 7.65 1.554 12.7 1.564 5.401.01 9.902-.423 13.508-1.293 3.596-.873 6.485-2.845 8.644-5.919 2.162-3.072 3.691-7.608 4.595-13.617.894-6 1.351-14.284 1.351-24.834 0-6.153-.094-11.059-.272-14.727-.185-3.66-.725-6.74-1.619-9.234-.904-2.488-2.162-4.62-3.783-6.38-1.565-1.7-3.553-3.67-5.95-5.922-.17-.16-.35-.318-.534-.465-4.64-3.736-10.4-7.342-17.292-10.805a397.982 397.982 0 00-21.885-10.153 472.048 472.048 0 01-22.154-10.152c-7.21-3.532-13.333-7.204-18.373-11.025-4.32-3.232-7.927-6.61-10.805-10.133-2.889-3.523-5.135-8.212-6.754-14.08-1.622-5.862-2.704-13.48-3.244-22.864-.54-9.376-.81-21.686-.81-36.929 0-15.825 1.435-28.932 4.322-39.33 2.88-10.395 7.651-18.67 14.32-24.81 6.661-6.143 15.485-10.445 26.478-12.917 10.983-2.464 24.587-3.688 40.796-3.656 16.928.034 30.886 1.31 41.877 3.817 10.985 2.516 19.632 6.635 25.937 12.36 6.3 5.728 10.622 13.21 12.97 22.445 2.34 9.236 3.512 20.598 3.512 34.074 0 9.384-.27 16.781-.81 22.198-.3 3.016-.742 5.826-1.32 8.43-.766 3.435-3.852 5.846-7.37 5.84zM1256.426 648.47c-4.361-.008-7.77-3.7-7.504-8.054l.006-.092c.178-3.079.27-7.254.27-12.53 0-12.892-1.537-22.048-4.593-27.48-3.064-5.426-10.36-8.154-21.885-8.177-5.05-.01-9.185.353-12.428 1.076-3.241.73-5.86 2.404-7.836 5.038-1.984 2.634-3.335 6.3-4.051 10.981-.726 4.692-1.081 10.988-1.081 18.901 0 7.033.084 12.603.27 16.705.177 4.108.625 7.475 1.35 10.113.719 2.64 1.799 4.771 3.244 6.381 1.434 1.616 3.595 3.454 6.484 5.507 4.32 2.942 9.539 5.952 15.67 9.043 6.122 3.088 12.605 6.034 19.452 8.83a767.185 767.185 0 0119.724 8.39c6.299 2.802 11.616 5.374 15.939 7.722 6.486 3.531 11.797 7.06 15.94 10.584 4.138 3.523 7.473 8.145 9.998 13.865 2.516 5.721 4.229 13.196 5.134 22.43.894 9.233 1.35 21.321 1.35 36.267 0 20.516-1.535 37.291-4.594 50.323-3.064 13.037-8.104 23.214-15.13 30.523-7.024 7.314-16.301 12.277-27.827 14.89-11.533 2.614-25.937 3.905-43.228 3.871-15.131-.03-27.921-1.153-38.364-3.37-10.455-2.22-19.101-6.338-25.938-12.36-6.848-6.018-11.805-14.379-14.86-25.085-3.065-10.7-4.592-24.697-4.592-41.992 0-7.032.354-13.473 1.079-19.339.393-3.208.842-6.15 1.345-8.833.668-3.555 3.8-6.1 7.419-6.094l41.008.081c4.224.008 7.578 3.472 7.51 7.695-.003.222-.005.445-.005.671v10.99c0 9.086.449 16.415 1.352 21.982.894 5.572 2.339 9.893 4.323 12.975 1.976 3.08 4.678 5.141 8.105 6.17 3.42 1.038 7.65 1.554 12.698 1.565 5.403.01 9.903-.423 13.51-1.293 3.595-.87 6.484-2.846 8.644-5.919 2.16-3.07 3.69-7.609 4.594-13.618.894-6 1.35-14.285 1.35-24.833 0-6.155-.093-11.059-.27-14.727-.186-3.66-.726-6.74-1.62-9.234-.904-2.487-2.161-4.62-3.783-6.38-1.565-1.7-3.553-3.67-5.951-5.922a9.341 9.341 0 00-.531-.462c-4.64-3.738-10.402-7.346-17.294-10.809a397.206 397.206 0 00-21.884-10.152 472.094 472.094 0 01-22.155-10.153c-7.21-3.533-13.332-7.204-18.373-11.025-4.32-3.23-7.927-6.61-10.805-10.133-2.89-3.522-5.134-8.212-6.754-14.079-1.621-5.863-2.703-13.482-3.244-22.865-.54-9.376-.81-21.684-.81-36.927 0-15.824 1.436-28.934 4.323-39.333 2.879-10.394 7.65-18.67 14.32-24.81 6.66-6.14 15.484-10.443 26.477-12.916 10.983-2.464 24.587-3.687 40.796-3.656 16.928.035 30.886 1.312 41.877 3.818 10.985 2.516 19.632 6.634 25.937 12.36 6.3 5.727 10.623 13.208 12.97 22.445 2.339 9.236 3.513 20.598 3.513 34.073 0 9.384-.272 16.781-.812 22.198-.3 3.016-.741 5.826-1.32 8.431-.764 3.434-3.851 5.845-7.37 5.84z"/></g></g></svg>