<svg xmlns="http://www.w3.org/2000/svg" viewBox="0 0 201.91 201.91"><defs><style>.cls-1{fill:#fff;}.cls-2{fill:#f6ad7a;}.cls-3{fill:#e94b4e;}.cls-4{fill:#f08052;}</style></defs><g id="Layer_2" data-name="Layer 2"><g id="Layer_1-2" data-name="Layer 1"><circle class="cls-1" cx="100.95" cy="100.95" r="100.95"/><polygon class="cls-2" points="139.86 97.87 100.95 120.33 100.95 75.41 139.86 97.87"/><polygon class="cls-2" points="139.86 142.8 100.95 165.26 100.95 120.33 139.86 142.8"/><polygon class="cls-3" points="100.95 120.33 139.86 97.87 139.86 142.8 100.95 120.33"/><polygon class="cls-3" points="100.95 75.41 139.86 52.95 139.86 97.87 100.95 75.41"/><polygon class="cls-2" points="139.86 97.87 178.77 120.33 178.77 75.41 139.86 97.87"/><polygon class="cls-4" points="178.77 120.33 139.86 97.87 139.86 142.8 178.77 120.33"/><polygon class="cls-4" points="178.77 75.41 139.86 52.95 139.86 97.87 178.77 75.41"/><polygon class="cls-4" points="62.05 97.87 100.95 120.33 100.95 75.41 62.05 97.87"/><polygon class="cls-3" points="62.05 142.8 100.95 165.26 100.95 120.33 62.05 142.8"/><polygon class="cls-2" points="100.95 120.33 62.05 97.87 62.05 142.8 100.95 120.33"/><polygon class="cls-2" points="100.95 75.41 62.05 52.95 62.05 97.87 100.95 75.41"/><polygon class="cls-2" points="62.05 97.87 23.14 120.33 23.14 75.41 62.05 97.87"/><polygon class="cls-4" points="23.14 120.33 62.05 97.87 62.05 142.8 23.14 120.33"/><polygon class="cls-3" points="23.14 75.41 62.05 52.95 62.05 97.87 23.14 75.41"/></g></g></svg>