<?xml version="1.0" encoding="utf-8"?>
<!-- Generator: Adobe Illustrator 22.1.0, SVG Export Plug-In . SVG Version: 6.00 Build 0)  -->
<svg version="1.1" id="Layer_1" xmlns="http://www.w3.org/2000/svg" xmlns:xlink="http://www.w3.org/1999/xlink" x="0px" y="0px"
	 viewBox="0 0 306.7 306.7" style="enable-background:new 0 0 306.7 306.7;" xml:space="preserve">
<style type="text/css">
	.st0{fill:url(#SVGID_1_);}
	.st1{fill:#FFFFFF;}
</style>
<title>SRO LOGO</title>
<linearGradient id="SVGID_1_" gradientUnits="userSpaceOnUse" x1="52.4287" y1="255.7864" x2="254.2613" y2="53.9638" gradientTransform="matrix(1 0 0 -1 0 308.221)">
	<stop  offset="0" style="stop-color:#3D8FEE"/>
	<stop  offset="1" style="stop-color:#45D3FF"/>
</linearGradient>
<path class="st0" d="M21.2,88.6h264.3c6.6,0,12,5.4,12,12V206c0,6.6-5.4,12-12,12H21.2c-6.6,0-12-5.4-12-12V100.6
	C9.2,94,14.6,88.6,21.2,88.6z"/>
<path class="st1" d="M131.6,184.1c-2.7,0-5.4-0.4-7.9-1.2c-2.5-0.8-4.8-2-6.9-3.5c-2.1-1.6-4-3.5-5.5-5.7c-1.6-2.4-2.9-5.1-3.7-7.9
	l11.4-4.5c0.7,3,2.3,5.8,4.4,8c2.2,2.2,5.2,3.3,8.3,3.2c1.2,0,2.5-0.2,3.6-0.5c1.1-0.3,2.2-0.8,3.1-1.4c0.9-0.6,1.7-1.4,2.2-2.4
	c0.6-1,0.8-2.2,0.8-3.3c0-1.1-0.2-2.2-0.6-3.2c-0.5-1-1.2-2-2.1-2.7c-1.2-1-2.5-1.8-3.9-2.4c-1.9-0.9-3.9-1.7-5.9-2.4l-4-1.4
	c-1.8-0.6-3.6-1.5-5.3-2.4c-1.8-1-3.4-2.3-4.8-3.7c-1.5-1.5-2.7-3.2-3.6-5.1c-1-2.1-1.4-4.3-1.4-6.6c0-2.4,0.5-4.9,1.5-7.1
	c1-2.2,2.4-4.2,4.2-5.8c1.9-1.7,4.2-3,6.6-3.9c5.5-1.8,11.4-1.9,16.9-0.1c2.2,0.8,4.2,1.9,6,3.3c1.6,1.3,2.9,2.8,4,4.5
	c0.9,1.4,1.7,3,2.3,4.6l-10.7,4.5c-0.7-1.9-1.8-3.6-3.3-4.9c-1.8-1.5-4.2-2.3-6.5-2.2c-2.3-0.1-4.6,0.6-6.5,1.8
	c-1.6,1-2.6,2.9-2.6,4.8c0,1.9,0.9,3.8,2.5,4.9c2.4,1.7,5.1,3.1,8,3.9l4,1.4c2.4,0.8,4.8,1.9,7.1,3.1c2,1.1,3.9,2.5,5.5,4.2
	c1.5,1.6,2.7,3.5,3.6,5.5c0.8,2.3,1.3,4.7,1.2,7.2c0.1,3-0.6,6-2,8.7c-1.3,2.3-3,4.4-5.2,6c-2.1,1.6-4.6,2.8-7.1,3.5
	C136.8,183.8,134.2,184.1,131.6,184.1z"/>
<path class="st1" d="M162.2,118.3h23.5c3,0,6,0.5,8.8,1.6c2.5,0.9,4.8,2.4,6.8,4.2c1.9,1.8,3.4,4,4.4,6.4c1,2.6,1.6,5.4,1.5,8.1
	c0,2.1-0.4,4.1-1.1,6.1c-0.7,1.9-1.7,3.6-3,5.1c-1.3,1.5-2.8,2.9-4.4,4c-1.6,1.2-3.4,2.1-5.3,2.8l-0.1,0.6l17.3,24.8v0.7h-14
	L180,158.5h-5.7v24.2h-12.1V118.3z M185.6,147.3c2.5,0.1,5-0.8,6.8-2.5c1.8-1.7,2.7-4,2.6-6.4c0-1.1-0.2-2.3-0.6-3.3
	c-0.4-1.1-1-2-1.8-2.9c-0.8-0.9-1.8-1.5-2.9-2c-1.3-0.5-2.6-0.8-4-0.8h-11.4v17.9L185.6,147.3z"/>
<path class="st1" d="M247,184.1c-4.6,0-9.1-0.8-13.4-2.6c-8.1-3.3-14.5-9.8-17.7-17.9c-3.4-8.5-3.4-17.9,0-26.4
	c3.3-8.1,9.7-14.5,17.7-17.9c8.6-3.5,18.2-3.5,26.7,0c4,1.7,7.6,4.1,10.7,7.2c3,3.1,5.4,6.7,7.1,10.7c3.4,8.5,3.4,17.9,0,26.4
	c-3.3,8.1-9.7,14.5-17.7,17.9C256.2,183.3,251.6,184.2,247,184.1z M247,172.6c2.9,0,5.7-0.5,8.4-1.6c2.6-1,4.9-2.6,6.8-4.5
	c2-2,3.6-4.4,4.6-7c2.2-5.8,2.2-12.3,0-18.1c-1-2.6-2.6-5-4.6-7c-2-1.9-4.3-3.5-6.8-4.5c-5.4-2.2-11.4-2.2-16.8,0
	c-2.6,1-4.9,2.6-6.8,4.5c-2,2-3.6,4.4-4.6,7c-2.2,5.8-2.2,12.3,0,18.1c1,2.6,2.6,5,4.6,7c2,1.9,4.3,3.5,6.8,4.5
	C241.3,172.1,244.1,172.6,247,172.6z"/>
<rect x="27.4" y="172.5" class="st1" width="58.6" height="11.1"/>
<path class="st1" d="M96.1,137.2c-8-0.3-10.6-0.1-15-0.9l-0.3,2h-2c0.3,4.5-0.2,7-0.9,14.9c3.1,5.2,10.8,10.1,11.8,9.3l1.8-2.4
	c-4-3-6.6-5-9.4-9.4c0.3-5.5,0.4-7.6,0.6-10.4c2.8,0.1,4.9,0.3,10.4,0.7c4,3.3,5.7,6.1,8.2,10.4l2.6-1.5
	C104.8,149.1,100.9,140.8,96.1,137.2z"/>
<circle class="st1" cx="80.2" cy="139" r="7.6"/>
<circle class="st1" cx="49.1" cy="123.9" r="7.6"/>
<rect x="58" y="109.7" transform="matrix(0.4633 -0.8862 0.8862 0.4633 -81.9116 124.7504)" class="st1" width="8" height="40.7"/>
<rect x="29.4" y="132.3" transform="matrix(0.4633 -0.8862 0.8862 0.4633 -98.7609 110.1185)" class="st1" width="24.2" height="8.6"/>
<circle class="st1" cx="35.3" cy="149.4" r="7.6"/>
<rect x="39.3" y="144.2" transform="matrix(0.7682 -0.6402 0.6402 0.7682 -93.6752 67.7573)" class="st1" width="14.8" height="38.1"/>
</svg>
