<svg xmlns="http://www.w3.org/2000/svg" width="1488.54" height="1337.56" viewBox="0 0 1488.54 1337.56">
  <title>SUSF Logo Light Background Blue</title>
  <g id="Rocket">
    <g>
      <path d="M2228.73,482.9S2020.33,381.23,1696,496.27c0,0,279.12-97.47,523.47,8.13s364.62,375.68,364.62,375.68C2445.58,565,2228.73,482.9,2228.73,482.9Z" transform="translate(-1154.45 -441.43)" style="fill: #383838"/>
      <path d="M1905.25,1469.64s-59.71-25.19-70,48.33-.82,115.6-8.44,133.26c7.62-17.66,44.79-39.56,91.26-97.47S1905.25,1469.64,1905.25,1469.64Zm-5.85,72.6c-24.14,30.08-43.44,41.46-47.4,50.63,4-9.17-1-31,4.38-69.22s36.38-25.1,36.38-25.1S1923.55,1512.17,1899.4,1542.24Z" transform="translate(-1154.45 -441.43)" style="fill: #383838"/>
      <path d="M1731.73,1394.65s-59.71-25.2-70,48.33-.81,115.6-8.44,133.25c7.63-17.65,44.79-39.56,91.27-97.46S1731.73,1394.65,1731.73,1394.65Zm-5.85,72.6c-24.14,30.08-43.45,41.46-47.41,50.63,4-9.17-1-31,4.39-69.22s36.38-25.11,36.38-25.11S1750,1437.17,1725.88,1467.25Z" transform="translate(-1154.45 -441.43)" style="fill: #383838"/>
      <path d="M1856.38,1523.65c3.67-26.09,19.3-28.25,28.84-27-4-53.69-60.58-78.73-60.58-78.73s-57-24.05-98.86,9.83c7.45,6.09,16.59,19,.1,39.5-16.66,20.75-31,32.6-39.61,41q-.46,2.85-.89,5.8c-20.53,146.2-1.62,229.87-16.79,265,15.17-35.1,89.07-78.67,181.48-193.8,1.25-1.55,2.45-3.09,3.62-4.62C1853.88,1568.57,1852.68,1550,1856.38,1523.65ZM1813,1562.28c-48,59.81-86.39,82.44-94.27,100.67,7.88-18.23-1.94-61.69,8.72-137.64s72.34-49.92,72.34-49.92S1861,1502.48,1813,1562.28Z" transform="translate(-1154.45 -441.43)" style="fill: #383838"/>
      <g>
        <path d="M1782.91,1194.11q12.21-16.93,14.86-46.57l-24.57,56.83A51.94,51.94,0,0,0,1782.91,1194.11Z" transform="translate(-1154.45 -441.43)" style="fill: #383838"/>
        <path d="M1933,1023.08l30.94-71.59a62.14,62.14,0,0,0-30.94-5.24Z" transform="translate(-1154.45 -441.43)" style="fill: #383838"/>
        <path d="M1731.5,1333.5q-7.08,0-14-.16l-13.89,32.14,73.87,17.45,25.92-60A250.57,250.57,0,0,1,1731.5,1333.5Z" transform="translate(-1154.45 -441.43)" style="fill: #383838"/>
      </g>
      <g>
        <path d="M2080.56,1144.29q-36.37-14-60.37-34.92L1996,1165.48a382.93,382.93,0,0,0,47,25.27q10.27,4.63,20,8l22.69-52.51Z" transform="translate(-1154.45 -441.43)" style="fill: #383838"/>
        <path d="M1979.8,1305V1202.84l-97.42,225.43,63.33,41.85,66.57-154A302.63,302.63,0,0,1,1979.8,1305Z" transform="translate(-1154.45 -441.43)" style="fill: #383838"/>
      </g>
      <path d="M2211.73,522.13C2131.88,574.6,2091.47,677,2091.47,677L1933,1043.77v75.85c0,71.09-18.79,121.47-50,157.13-14.28,16.33-38.71,32.08-69.22,42.82l-28.07,65,47.37,13.75,42.48,25.08,104.24-241.19V1154.5c3,2.17,6,4.31,9.17,6.43l24.85-57.49c-26.79-26.38-40.2-60.48-40.2-102.77,0-42.86,16.27-82.68,48.83-108.33,26.2-20.65,59.61-35.69,100.22-40.78l58.65-135.7S2228.23,616.24,2211.73,522.13Z" transform="translate(-1154.45 -441.43)" style="fill: #383838"/>
    </g>
  </g>
  <g id="Text_Outlines" data-name="Text Outlines">
    <g>
      <path d="M1480.53,1177.93q0,44.21-23.65,77t-66.3,48.83q-42.64,16.08-102.61,16.08-69.54,0-127.34-23.49V1174.84a251.18,251.18,0,0,0,61.5,32.91q33.69,12.52,62.75,12.52,21.94,0,34-7.88t12-23a31.24,31.24,0,0,0-6-19q-6-8.19-18.24-15.3t-45.28-19.48q-107-41.1-106.94-132.9,0-64.29,48.83-102.77t131-38.48q23.19,0,42.66,1.85t35.39,4.64q15.91,2.77,44.66,10.51V991.24q-55.95-30.6-110-30.6-22.24,0-35.85,8.35t-13.6,22.87q0,13.9,11,23t45.9,23.64q68.92,27.83,97.52,60.89T1480.53,1177.93Z" transform="translate(-1154.45 -441.43)" style="fill: #003c7a"/>
      <path d="M1921,1109.62q0,106.64-48.68,158.41t-150.06,51.77q-94.57,0-143.57-51.77t-49-155.94V868.85h134.14V1117q0,42.64,15.92,65.68t45.59,23q30,0,45.59-21.64t15.61-64V868.85H1921Z" transform="translate(-1154.45 -441.43)" style="fill: #003c7a"/>
      <path d="M2311,1177.93q0,44.21-23.64,77t-66.3,48.83q-42.66,16.08-102.62,16.08-69.54,0-127.34-23.49V1174.84a251.43,251.43,0,0,0,61.51,32.91q33.69,12.52,62.74,12.52,21.95,0,34-7.88t12.06-23a31.18,31.18,0,0,0-6-19q-6-8.19-18.24-15.3t-45.28-19.48Q1985,1094.48,1985,1002.68q0-64.29,48.84-102.77t131.05-38.48q23.17,0,42.65,1.85t35.39,4.64q15.91,2.77,44.66,10.51V991.24q-56-30.6-110-30.6-22.26,0-35.86,8.35t-13.6,22.87q0,13.9,11,23t45.9,23.64q68.91,27.83,97.51,60.89T2311,1177.93Z" transform="translate(-1154.45 -441.43)" style="fill: #003c7a"/>
      <path d="M2498.64,973.31v79.75h131.67v104.47H2498.64v154.54H2365.12V868.85H2643V973.31Z" transform="translate(-1154.45 -441.43)" style="fill: #003c7a"/>
    </g>
  </g>
</svg>
